#!OML:ASF X:\für Bonn\!DataBase\2005_08_10_Bjorn_Final\c3d\bjorn.ASF
:FULLY-SPECIFIED
:DEGREES
367
root 0.134421 2.14551 18.9603 -256.725 -5.11696 -533.946
lowerback 56.3464 5.40143 19.5169
upperback 28.5457 -2.32353 8.76328
thorax 13.6223 -8.30606 -0.00961677
lowerneck 7.31862 14.7877 -3.09888
upperneck 1.42278 19.0354 -11.1152
head 0.12209 9.50952 -3.34435
rclavicle -2.32578e-014 -3.99557e-014
rhumerus -67.7292 -9.54907 -82.6113
rradius 33.7933
rwrist -40.7425
rhand -9.85742 1.78196
rfingers 7.12502
rthumb 16.1209 -27.5676
lclavicle -2.32578e-014 -3.99557e-014
lhumerus -66.9129 -26.6419 99.3751
lradius 52.6748
lwrist 32.71
lhand -29.0452 -347.667
lfingers 7.12502
lthumb -2.39532 42.2991
rfemur -38.641 -79.403 -55.5444
rtibia 145.325
rfoot 13.44 48.0584
rtoes 2.41934
lfemur -81.9093 48.6802 -3.90892
ltibia 146.534
lfoot 11.2616 -20.5526
ltoes -0.79473
368
root 0.132576 2.12664 18.9625 -256.867 -5.11831 -534.014
lowerback 55.9551 5.55022 19.4405
upperback 28.7685 -2.33163 8.83794
thorax 13.9357 -8.33018 0.0351314
lowerneck 8.2083 14.7576 -2.15505
upperneck 1.51186 19.0344 -11.0619
head 0.08744 9.54186 -3.53816
rclavicle 2.40529e-014 8.74653e-015
rhumerus -68.0766 -8.96322 -83.3101
rradius 34.5745
rwrist -41.4393
rhand -9.93373 1.56821
rfingers 7.12502
rthumb 16.0475 -27.7872
lclavicle 2.40529e-014 8.74653e-015
lhumerus -67.6084 -27.4487 100.045
lradius 53.3075
lwrist 33.3877
lhand -29.2487 -347.3
lfingers 7.12502
lthumb -2.59185 42.664
rfemur -41.0328 -79.1414 -53.027
rtibia 145.189
rfoot 13.7836 47.7114
rtoes 2.21184
lfemur -81.8913 49.1107 -3.90898
ltibia 146.557
lfoot 11.3092 -20.6533
ltoes -0.765778
369
root 0.132137 2.10943 18.9663 -257.013 -5.13188 -534.085
lowerback 55.5734 5.69063 19.3198
upperback 28.9603 -2.33881 8.888
thorax 14.2006 -8.34952 0.0792443
lowerneck 9.08725 14.7305 -1.24939
upperneck 1.69472 19.0531 -10.9179
head 0.0734015 9.57562 -3.69445
rclavicle -1.2921e-015 -5.76476e-015
rhumerus -68.5027 -8.30752 -84.0655
rradius 35.4093
rwrist -42.1578
rhand -10.0708 1.35296
rfingers 7.12502
rthumb 15.9155 -28.0131
lclavicle -1.2921e-015 -5.76476e-015
lhumerus -68.3777 -28.2615 100.784
lradius 53.9298
lwrist 34.1519
lhand -29.4881 -346.973
lfingers 7.12502
lthumb -2.82313 42.9877
rfemur -44.5106 -78.6612 -49.2022
rtibia 144.938
rfoot 14.1001 47.1619
rtoes 1.97686
lfemur -81.8227 49.3772 -3.88715
ltibia 146.547
lfoot 11.4405 -20.7118
ltoes -0.630323
370
root 0.131507 2.09475 18.97 -257.17 -5.15465 -534.167
lowerback 55.1438 5.81461 19.2269
upperback 29.1714 -2.35145 8.89719
thorax 14.5005 -8.35173 0.061458
lowerneck 9.88262 14.6645 -0.333682
upperneck 1.97163 19.0458 -10.6656
head 0.0924301 9.58791 -3.80641
rclavicle 4.17448e-015 -1.74931e-014
rhumerus -68.899 -7.74832 -84.8228
rradius 36.2297
rwrist -42.8805
rhand -10.2195 1.07662
rfingers 7.12502
rthumb 15.7722 -28.3008
lclavicle 4.17448e-015 -1.74931e-014
lhumerus -69.2356 -29.2026 101.56
lradius 54.5986
lwrist 35.0146
lhand -29.8149 -346.67
lfingers 7.12502
lthumb -3.13872 43.2862
rfemur -48.1824 -77.9671 -45.0041
rtibia 144.559
rfoot 14.5391 46.4799
rtoes 1.65108
lfemur -81.6937 49.6036 -3.83604
ltibia 146.545
lfoot 11.4837 -20.7959
ltoes -0.635711
371
root 0.131422 2.08209 18.975 -257.326 -5.18949 -534.243
lowerback 54.717 5.94295 19.0954
upperback 29.3681 -2.37072 8.92894
thorax 14.7798 -8.36867 0.0899068
lowerneck 10.5955 14.5924 0.41053
upperneck 2.30511 19.0238 -10.3064
head 0.115335 9.58334 -3.84958
rclavicle 4.23411e-014 -1.05356e-014
rhumerus -69.2757 -7.17655 -85.5076
rradius 37.0319
rwrist -43.5576
rhand -10.368 0.828082
rfingers 7.12502
rthumb 15.6292 -28.5606
lclavicle 4.23411e-014 -1.05356e-014
lhumerus -70.1704 -30.2221 102.519
lradius 55.3174
lwrist 36.0357
lhand -30.1492 -346.287
lfingers 7.12502
lthumb -3.46156 43.6649
rfemur -52.0267 -77.0114 -40.5274
rtibia 144.111
rfoot 15.0641 45.6503
rtoes 1.33746
lfemur -81.5149 49.7709 -3.7872
ltibia 146.522
lfoot 11.5447 -20.825
ltoes -0.642329
372
root 0.132344 2.07174 18.9813 -257.487 -5.22813 -534.318
lowerback 54.277 6.0463 18.9908
upperback 29.5681 -2.39914 8.91586
thorax 15.0704 -8.37248 0.0582775
lowerneck 11.2881 14.4955 1.16199
upperneck 2.6156 18.9754 -9.90698
head 0.128999 9.56462 -3.88084
rclavicle 2.38542e-015 5.76476e-015
rhumerus -69.6585 -6.67263 -86.22
rradius 37.8654
rwrist -44.2466
rhand -10.5361 0.573681
rfingers 7.12502
rthumb 15.4673 -28.8275
lclavicle 2.38542e-015 5.76476e-015
lhumerus -71.2062 -31.4038 103.573
lradius 56.0916
lwrist 37.2178
lhand -30.5963 -345.87
lfingers 7.12502
lthumb -3.89325 44.0746
rfemur -55.4415 -75.8706 -36.3698
rtibia 143.601
rfoot 15.5127 44.744
rtoes 1.00421
lfemur -81.2911 49.872 -3.69506
ltibia 146.492
lfoot 11.5397 -20.8812
ltoes -0.799987
373
root 0.132708 2.06537 18.988 -257.647 -5.27853 -534.385
lowerback 53.8487 6.13586 18.8467
upperback 29.7307 -2.43337 8.91006
thorax 15.3064 -8.38262 0.0623786
lowerneck 11.9577 14.4036 1.82537
upperneck 2.99022 18.9257 -9.47877
head 0.156552 9.5382 -3.88467
rclavicle 1.26228e-014 -8.84592e-015
rhumerus -70.0884 -6.13228 -86.8798
rradius 38.7234
rwrist -44.888
rhand -10.7822 0.265289
rfingers 7.12502
rthumb 15.2303 -29.1541
lclavicle 1.26228e-014 -8.84592e-015
lhumerus -72.2238 -32.4144 104.611
lradius 56.8034
lwrist 38.3159
lhand -31.0014 -345.494
lfingers 7.12502
lthumb -4.28448 44.4431
rfemur -58.2994 -74.5605 -32.6954
rtibia 143.029
rfoot 15.9644 43.8051
rtoes 0.586983
lfemur -80.973 49.9627 -3.56478
ltibia 146.438
lfoot 11.5642 -20.9207
ltoes -0.700306
374
root 0.133175 2.06238 18.9962 -257.783 -5.31682 -534.44
lowerback 53.4229 6.18886 18.704
upperback 29.8479 -2.46698 8.87387
thorax 15.4806 -8.37451 0.0435684
lowerneck 12.6472 14.3195 2.4584
upperneck 3.41059 18.8827 -8.99652
head 0.188451 9.51032 -3.86623
rclavicle 7.30534e-015 2.89232e-014
rhumerus -70.5923 -5.61675 -87.504
rradius 39.5862
rwrist -45.4671
rhand -10.9898 -0.0259033
rfingers 7.12502
rthumb 15.0303 -29.4603
lclavicle 7.30534e-015 2.89232e-014
lhumerus -73.167 -33.2311 105.529
lradius 57.3787
lwrist 39.2222
lhand -31.3429 -345.188
lfingers 7.12502
lthumb -4.61426 44.7416
rfemur -60.749 -73.1018 -29.3455
rtibia 142.401
rfoot 16.4743 42.7909
rtoes 0.325005
lfemur -80.6591 49.991 -3.43909
ltibia 146.38
lfoot 11.5208 -20.9603
ltoes -0.822393
375
root 0.134004 2.06021 19.0056 -257.955 -5.37652 -534.495
lowerback 53.0842 6.21514 18.5467
upperback 29.9213 -2.51159 8.83833
thorax 15.5866 -8.38029 0.0487057
lowerneck 13.3639 14.2531 2.92511
upperneck 3.75776 18.8362 -8.47857
head 0.172226 9.47832 -3.8182
rclavicle 1.60022e-014 -2.08724e-014
rhumerus -71.169 -5.03693 -88.1257
rradius 40.55
rwrist -46.1475
rhand -11.2799 -0.324533
rfingers 7.12502
rthumb 14.7508 -29.7797
lclavicle 1.60022e-014 -2.08724e-014
lhumerus -74.1504 -33.9607 106.486
lradius 57.9554
lwrist 40.0647
lhand -31.6578 -344.858
lfingers 7.12502
lthumb -4.91829 45.065
rfemur -62.7688 -71.4332 -26.3858
rtibia 141.719
rfoot 16.9856 41.7462
rtoes -0.165491
lfemur -80.2558 49.9542 -3.28456
ltibia 146.304
lfoot 11.4849 -20.9707
ltoes -0.925946
376
root 0.136196 2.05785 19.0159 -258.116 -5.41842 -534.542
lowerback 52.742 6.23036 18.403
upperback 29.9786 -2.54816 8.80094
thorax 15.6739 -8.37491 0.048121
lowerneck 14.0282 14.1787 3.38669
upperneck 4.12126 18.78 -8.02267
head 0.176334 9.43932 -3.78319
rclavicle -1.43125e-014 3.57812e-014
rhumerus -71.8117 -4.43528 -88.7701
rradius 41.628
rwrist -46.8716
rhand -11.6432 -0.749057
rfingers 7.12502
rthumb 14.4008 -30.2295
lclavicle -1.43125e-014 3.57812e-014
lhumerus -75.1539 -34.6438 107.437
lradius 58.5327
lwrist 40.9489
lhand -31.9679 -344.615
lfingers 7.12502
lthumb -5.21774 45.3013
rfemur -64.4444 -69.6938 -23.6945
rtibia 141.013
rfoot 17.3761 40.6709
rtoes -0.883017
lfemur -79.8864 49.8838 -3.11535
ltibia 146.218
lfoot 11.4819 -20.9821
ltoes -0.996642
377
root 0.139198 2.05667 19.027 -258.29 -5.4482 -534.585
lowerback 52.3948 6.23108 18.2839
upperback 30.0255 -2.57785 8.75743
thorax 15.7522 -8.35662 0.0311819
lowerneck 14.6641 14.0761 3.88293
upperneck 4.48435 18.6931 -7.63047
head 0.19348 9.38506 -3.77073
rclavicle 6.74377e-014 6.16232e-015
rhumerus -72.4981 -3.90308 -89.3958
rradius 42.7786
rwrist -47.61
rhand -12.036 -1.18164
rfingers 7.12502
rthumb 14.0223 -30.6887
lclavicle 6.74377e-014 6.16232e-015
lhumerus -76.2486 -35.3386 108.431
lradius 59.1556
lwrist 41.8729
lhand -32.3208 -344.318
lfingers 7.12502
lthumb -5.55844 45.5896
rfemur -65.6908 -67.854 -21.3857
rtibia 140.265
rfoot 17.8555 39.5508
rtoes -1.50946
lfemur -79.4751 49.7785 -2.91643
ltibia 146.118
lfoot 11.4283 -21.004
ltoes -1.26624
378
root 0.142402 2.05596 19.039 -258.46 -5.49106 -534.648
lowerback 52.0373 6.24123 18.1305
upperback 30.0788 -2.61318 8.69926
thorax 15.8356 -8.34395 0.0121631
lowerneck 15.2204 13.9685 4.36557
upperneck 4.87556 18.5996 -7.30628
head 0.239117 9.32647 -3.76883
rclavicle -4.02539e-015 5.89397e-014
rhumerus -73.1561 -3.33896 -90.0369
rradius 43.9491
rwrist -48.3483
rhand -12.522 -1.66433
rfingers 7.12502
rthumb 13.554 -31.2032
lclavicle -4.02539e-015 5.89397e-014
lhumerus -77.2581 -35.9429 109.373
lradius 59.711
lwrist 42.7877
lhand -32.7072 -344.022
lfingers 7.12502
lthumb -5.93157 45.875
rfemur -66.8125 -65.808 -19.1582
rtibia 139.441
rfoot 18.3918 38.2769
rtoes -2.15949
lfemur -79.0274 49.6955 -2.70153
ltibia 146.013
lfoot 11.4729 -20.9689
ltoes -1.03747
379
root 0.146816 2.05469 19.0508 -258.637 -5.52038 -534.705
lowerback 51.6488 6.24236 18.0331
upperback 30.168 -2.65895 8.61537
thorax 15.9819 -8.32415 -0.0678476
lowerneck 15.5836 13.8368 4.8729
upperneck 5.29625 18.4838 -7.01966
head 0.33127 9.2571 -3.76301
rclavicle 1.13506e-013 5.86415e-015
rhumerus -73.6703 -2.87563 -90.6994
rradius 45.043
rwrist -49.0762
rhand -13.0208 -2.16215
rfingers 7.12502
rthumb 13.0732 -31.7324
lclavicle 1.13506e-013 5.86415e-015
lhumerus -78.247 -36.6414 110.25
lradius 60.2963
lwrist 43.7546
lhand -33.065 -343.724
lfingers 7.12502
lthumb -6.27692 46.163
rfemur -67.6377 -63.6418 -17.0843
rtibia 138.517
rfoot 18.8061 36.9366
rtoes -2.90231
lfemur -78.5735 49.5517 -2.44564
ltibia 145.891
lfoot 11.5425 -20.9419
ltoes -0.776562
